<svg preserveAspectRatio="none" overflow="visible" style="display: block;" width="14.937" height="14.8786" viewBox="0 0 14.937 14.8786" fill="none" xmlns="http://www.w3.org/2000/svg">
<g id="Mask group">
<mask id="mask0_0_13" style="mask-type:luminance" maskUnits="userSpaceOnUse" x="0" y="0" width="15" height="15">
<g id="Group">
<path id="Vector" fill-rule="evenodd" clip-rule="evenodd" d="M0.0749999 14.4983C0.0608675 14.5491 0.0603969 14.6028 0.0736356 14.6539C0.0868742 14.705 0.113354 14.7517 0.150402 14.7892C0.18745 14.8268 0.233755 14.854 0.284645 14.8679C0.335536 14.8819 0.389209 14.8822 0.44025 14.8688L3.8955 13.9658C4.99176 14.5596 6.21876 14.8707 7.4655 14.871H7.4685C11.583 14.871 14.937 11.5365 14.937 7.43703C14.9395 6.45944 14.7476 5.49111 14.3724 4.58839C13.9972 3.68567 13.4462 2.86658 12.7515 2.17878C12.058 1.48535 11.2342 0.935866 10.3275 0.561953C9.42087 0.18804 8.44923 -0.00292768 7.4685 3.39261e-05C3.354 3.39261e-05 0 3.33453 0 7.43328C0 8.73753 0.3435 10.0185 0.9975 11.1488L0.0749999 14.4983ZM5.1015 3.87753C5.23875 3.88128 5.391 3.88878 5.53575 4.20978C5.63175 4.42353 5.793 4.81728 5.925 5.13828C6.02775 5.38803 6.11175 5.59353 6.13275 5.63553C6.1815 5.73153 6.21075 5.84178 6.14775 5.97153L6.12675 6.01503C6.07575 6.12003 6.03975 6.19503 5.95425 6.29253L5.847 6.42003C5.78325 6.49803 5.7195 6.57453 5.6655 6.62853C5.56875 6.72453 5.469 6.82803 5.58 7.02003C5.691 7.21203 6.081 7.84353 6.65625 8.35278C7.07699 8.73226 7.55975 9.03668 8.0835 9.25278C8.136 9.27528 8.1785 9.29428 8.211 9.30978C8.40375 9.40578 8.5185 9.39078 8.6295 9.26178C8.74125 9.13203 9.11175 8.70003 9.24225 8.50803C9.36825 8.31603 9.49725 8.34603 9.67575 8.41203C9.85425 8.47878 10.8038 8.94453 10.9965 9.03978L11.1038 9.09228C11.238 9.15603 11.3287 9.20028 11.3677 9.26478C11.4157 9.34653 11.4158 9.72978 11.2568 10.1813C11.0933 10.6313 10.3065 11.0633 9.95025 11.0963L9.849 11.1083C9.522 11.1473 9.108 11.1983 7.632 10.617C5.8125 9.90153 4.61175 8.12703 4.3695 7.76778L4.32975 7.71078L4.326 7.70478C4.215 7.55703 3.53925 6.65328 3.53925 5.72028C3.53925 4.82778 3.9795 4.36278 4.17975 4.15128L4.215 4.11378C4.27982 4.04056 4.35901 3.98147 4.44766 3.94018C4.5363 3.89889 4.63249 3.87629 4.73025 3.87378C4.86 3.87378 4.9905 3.87378 5.1015 3.87753Z" fill="white"/>
</g>
</mask>
<g mask="url(#mask0_0_13)">
<path id="Vector_2" fill-rule="evenodd" clip-rule="evenodd" d="M0.0749999 14.4983C0.0608675 14.5491 0.0603969 14.6028 0.0736356 14.6539C0.0868742 14.705 0.113354 14.7517 0.150402 14.7892C0.18745 14.8268 0.233755 14.854 0.284645 14.8679C0.335536 14.8819 0.389209 14.8822 0.44025 14.8688L3.8955 13.9658C4.99176 14.5596 6.21876 14.8707 7.4655 14.871H7.4685C11.583 14.871 14.937 11.5365 14.937 7.43703C14.9395 6.45944 14.7476 5.49111 14.3724 4.58839C13.9972 3.68567 13.4462 2.86658 12.7515 2.17878C12.058 1.48535 11.2342 0.935866 10.3275 0.561953C9.42087 0.18804 8.44923 -0.00292768 7.4685 3.39261e-05C3.354 3.39261e-05 0 3.33453 0 7.43328C0 8.73753 0.3435 10.0185 0.9975 11.1488L0.0749999 14.4983ZM5.1015 3.87753C5.23875 3.88128 5.391 3.88878 5.53575 4.20978C5.63175 4.42353 5.793 4.81728 5.925 5.13828C6.02775 5.38803 6.11175 5.59353 6.13275 5.63553C6.1815 5.73153 6.21075 5.84178 6.14775 5.97153L6.12675 6.01503C6.07575 6.12003 6.03975 6.19503 5.95425 6.29253L5.847 6.42003C5.78325 6.49803 5.7195 6.57453 5.6655 6.62853C5.56875 6.72453 5.469 6.82803 5.58 7.02003C5.691 7.21203 6.081 7.84353 6.65625 8.35278C7.07699 8.73226 7.55975 9.03668 8.0835 9.25278C8.136 9.27528 8.1785 9.29428 8.211 9.30978C8.40375 9.40578 8.5185 9.39078 8.6295 9.26178C8.74125 9.13203 9.11175 8.70003 9.24225 8.50803C9.36825 8.31603 9.49725 8.34603 9.67575 8.41203C9.85425 8.47878 10.8038 8.94453 10.9965 9.03978L11.1038 9.09228C11.238 9.15603 11.3287 9.20028 11.3677 9.26478C11.4157 9.34653 11.4158 9.72978 11.2568 10.1813C11.0933 10.6313 10.3065 11.0633 9.95025 11.0963L9.849 11.1083C9.522 11.1473 9.108 11.1983 7.632 10.617C5.8125 9.90153 4.61175 8.12703 4.3695 7.76778L4.32975 7.71078L4.326 7.70478C4.215 7.55703 3.53925 6.65328 3.53925 5.72028C3.53925 4.82778 3.9795 4.36278 4.17975 4.15128L4.215 4.11378C4.27982 4.04056 4.35901 3.98147 4.44766 3.94018C4.5363 3.89889 4.63249 3.87629 4.73025 3.87378C4.86 3.87378 4.9905 3.87378 5.1015 3.87753Z" fill="white" stroke="white" stroke-width="2" stroke-linejoin="round"/>
</g>
</g>
</svg>
