<svg preserveAspectRatio="none" overflow="visible" style="display: block;" width="28" height="28" viewBox="0 0 28 28" fill="none" xmlns="http://www.w3.org/2000/svg">
<g id="eos-icons:file-system">
<path id="Vector" d="M16.3333 15.1667H23.3333C23.6428 15.1667 23.9395 15.0437 24.1583 14.825C24.3771 14.6062 24.5 14.3094 24.5 14V10.5C24.5 10.1906 24.3771 9.89383 24.1583 9.67504C23.9395 9.45625 23.6428 9.33333 23.3333 9.33333H19.8333L18.6667 8.16667H16.3333C16.0239 8.16667 15.7272 8.28958 15.5084 8.50838C15.2896 8.72717 15.1667 9.02391 15.1667 9.33333V10.5H9.33333V8.16667H11.6667C11.9761 8.16667 12.2728 8.04375 12.4916 7.82496C12.7104 7.60616 12.8333 7.30942 12.8333 7V3.5C12.8333 3.19058 12.7104 2.89383 12.4916 2.67504C12.2728 2.45625 11.9761 2.33333 11.6667 2.33333H8.16667L7 1.16667H4.66667C4.35725 1.16667 4.0605 1.28958 3.84171 1.50838C3.62292 1.72717 3.5 2.02391 3.5 2.33333V7C3.5 7.30942 3.62292 7.60616 3.84171 7.82496C4.0605 8.04375 4.35725 8.16667 4.66667 8.16667H7V23.3333H15.1667V24.5C15.1667 24.8094 15.2896 25.1062 15.5084 25.325C15.7272 25.5438 16.0239 25.6667 16.3333 25.6667H23.3333C23.6428 25.6667 23.9395 25.5438 24.1583 25.325C24.3771 25.1062 24.5 24.8094 24.5 24.5V21C24.5 20.6906 24.3771 20.3938 24.1583 20.175C23.9395 19.9562 23.6428 19.8333 23.3333 19.8333H19.8333L18.6667 18.6667H16.3333C16.0239 18.6667 15.7272 18.7896 15.5084 19.0084C15.2896 19.2272 15.1667 19.5239 15.1667 19.8333V21H9.33333V12.8333H15.1667V14C15.1667 14.3094 15.2896 14.6062 15.5084 14.825C15.7272 15.0437 16.0239 15.1667 16.3333 15.1667Z" fill="white"/>
</g>
</svg>
